
<?xml version="1.0" standalone="no"?><!DOCTYPE svg PUBLIC "-//W3C//DTD SVG 1.1//EN" "http://www.w3.org/Graphics/SVG/1.1/DTD/svg11.dtd"><svg t="1529932229625" class="icon" style="" viewBox="0 0 1024 1024" version="1.1" xmlns="http://www.w3.org/2000/svg" p-id="3291" xmlns:xlink="http://www.w3.org/1999/xlink" width="200" height="200"><defs><style type="text/css"></style></defs><path d="M831.508941 383.823736l-63.960731 0 0-63.960731c0-141.29812-114.544803-255.842922-255.842922-255.842922S255.863389 178.565908 255.863389 319.863005l0 63.960731-63.964824 0c-35.322483 0-63.956637 28.634154-63.956637 63.956637l0 447.728184c0 35.322483 28.634154 63.956637 63.956637 63.956637l639.610376 0c35.322483 0 63.956637-28.634154 63.956637-63.956637L895.465578 447.780373C895.465578 412.458913 866.831424 383.823736 831.508941 383.823736zM319.824119 319.863005c0-105.97359 85.908602-191.882192 191.882192-191.882192s191.882192 85.908602 191.882192 191.882192l0 63.960731L319.824119 383.823736 319.824119 319.863005zM831.508941 863.787088c0 17.520025-14.202467 31.722492-31.722492 31.722492L223.62515 895.509581c-17.520025 0-31.722492-14.202467-31.722492-31.722492L191.902658 479.506958c0-17.520025 14.202467-31.722492 31.722492-31.722492l576.161299 0c17.520025 0 31.722492 14.202467 31.722492 31.722492L831.508941 863.787088z" p-id="3292" fill="#5a5e66"></path><path d="M511.706311 511.745197c-70.64906 0-127.921461 57.272401-127.921461 127.921461 0 59.605539 40.766472 109.689215 95.939049 123.890658l0 36.269042c0 17.520025 14.202467 31.722492 31.722492 31.722492l0.515746 0c17.520025 0 31.722492-14.202467 31.722492-31.722492l0-36.268018c55.174624-14.20042 95.943143-64.285119 95.943143-123.891681C639.627772 569.017598 582.355371 511.745197 511.706311 511.745197zM511.706311 703.627389c-35.32453 0-63.960731-28.636201-63.960731-63.960731 0-35.32453 28.636201-63.960731 63.960731-63.960731 35.32453 0 63.960731 28.636201 63.960731 63.960731C575.667042 674.991188 547.030841 703.627389 511.706311 703.627389z" p-id="3293" fill="#5a5e66"></path></svg>